<svg width="24" height="24" viewBox="0 0 24 24" fill="none" xmlns="http://www.w3.org/2000/svg">
<path d="M11.9844 23C10.0887 23 8.54685 21.4582 8.54685 19.5625C8.54685 19.183 8.85485 18.875 9.23435 18.875C9.61385 18.875 9.92185 19.183 9.92185 19.5625C9.92185 20.7002 10.8467 21.625 11.9844 21.625C13.1218 21.625 14.0469 20.7002 14.0469 19.5625C14.0469 19.183 14.3549 18.875 14.7344 18.875C15.1139 18.875 15.4219 19.183 15.4219 19.5625C15.4219 21.4582 13.88 23 11.9844 23Z" fill="#B6A796"/>
<path d="M19.547 20.25H4.42197C3.53725 20.25 2.81769 19.5304 2.81769 18.6459C2.81769 18.1764 3.02213 17.732 3.3788 17.4267C4.77293 16.2487 5.56769 14.5365 5.56769 12.7224V10.1666C5.56769 6.6284 8.44609 3.75 11.9845 3.75C15.5227 3.75 18.4011 6.6284 18.4011 10.1666V12.7224C18.4011 14.5365 19.1958 16.2487 20.5809 17.4203C20.9466 17.732 21.1511 18.1764 21.1511 18.6459C21.1511 19.5304 20.4315 20.25 19.547 20.25ZM11.9845 5.125C9.20409 5.125 6.94269 7.3864 6.94269 10.1666V12.7224C6.94269 14.9415 5.97018 17.0371 4.27527 18.4698C4.24321 18.4973 4.19269 18.5542 4.19269 18.6459C4.19269 18.7704 4.29726 18.875 4.42197 18.875H19.547C19.6715 18.875 19.7761 18.7704 19.7761 18.6459C19.7761 18.5542 19.7257 18.4973 19.6953 18.4717C17.9986 17.0371 17.0261 14.9415 17.0261 12.7224V10.1666C17.0261 7.3864 14.7647 5.125 11.9845 5.125Z" fill="#B6A796"/>
<path d="M11.9844 5.125C11.6049 5.125 11.2969 4.817 11.2969 4.4375V1.6875C11.2969 1.308 11.6049 1 11.9844 1C12.3639 1 12.6719 1.308 12.6719 1.6875V4.4375C12.6719 4.817 12.3639 5.125 11.9844 5.125Z" fill="#B6A796"/>
</svg>
