<svg width="19" height="20" viewBox="0 0 19 20" fill="none" xmlns="http://www.w3.org/2000/svg">
<path d="M16.4286 0H2.14286C1.57445 0 1.02951 0.225763 0.627551 0.627551C0.225763 1.0295 0 1.57445 0 2.14286V17.8571C0 18.4256 0.225763 18.9705 0.627551 19.3724C1.0295 19.7742 1.57445 20 2.14286 20H16.4286C16.997 20 17.5419 19.7742 17.9439 19.3724C18.3457 18.9705 18.5714 18.4256 18.5714 17.8571V2.14286C18.5714 1.57445 18.3457 1.02951 17.9439 0.627551C17.5419 0.225763 16.997 0 16.4286 0ZM14.2857 17.1429H4.28571C4.03045 17.1429 3.79465 17.0067 3.6671 16.7857C3.53955 16.5647 3.53955 16.2924 3.6671 16.0714C3.79465 15.8504 4.03046 15.7143 4.28571 15.7143H14.2857C14.541 15.7143 14.7768 15.8504 14.9043 16.0714C15.0319 16.2924 15.0319 16.5647 14.9043 16.7857C14.7768 17.0067 14.541 17.1429 14.2857 17.1429ZM14.2857 14.2857H4.28571C4.03045 14.2857 3.79465 14.1496 3.6671 13.9286C3.53955 13.7076 3.53955 13.4353 3.6671 13.2143C3.79465 12.9933 4.03046 12.8571 4.28571 12.8571H14.2857C14.541 12.8571 14.7768 12.9933 14.9043 13.2143C15.0319 13.4353 15.0319 13.7076 14.9043 13.9286C14.7768 14.1496 14.541 14.2857 14.2857 14.2857ZM15.7143 9.28571C15.7143 9.66454 15.5638 10.0279 15.2959 10.2959C15.0279 10.5638 14.6645 10.7143 14.2857 10.7143H4.28571C3.90689 10.7143 3.54351 10.5638 3.27551 10.2959C3.00765 10.0279 2.85714 9.66453 2.85714 9.28571V4.28571C2.85714 3.90689 3.00765 3.54351 3.27551 3.27551C3.54353 3.00765 3.9069 2.85714 4.28571 2.85714H14.2857C14.6645 2.85714 15.0279 3.00765 15.2959 3.27551C15.5638 3.54353 15.7143 3.9069 15.7143 4.28571V9.28571Z" fill="#929093"/>
<path d="M4.28571 4.28564H14.2857V9.28646H4.28571V4.28564Z" fill="#929093"/>
</svg>
