<svg width="22" height="14" viewBox="0 0 22 14" fill="none" xmlns="http://www.w3.org/2000/svg">
<path d="M21.1739 6.49217C21.358 6.81226 21.358 7.18774 21.1739 7.50783C20.1641 9.26302 17.0958 13.5 11 13.5C4.90416 13.5 1.83586 9.26302 0.826117 7.50783C0.641974 7.18774 0.641974 6.81226 0.826116 6.49217C1.83586 4.73698 4.90416 0.5 11 0.5C17.0958 0.5 20.1641 4.73698 21.1739 6.49217Z" stroke="#B6B4B6" stroke-linecap="round" stroke-linejoin="round"/>
<path d="M14.8238 5.82212L15.3016 5.67508C15.2405 5.47632 15.0627 5.33616 14.8551 5.32311C14.6476 5.31005 14.4536 5.42683 14.368 5.61637L14.8238 5.82212ZM12.1779 3.17624L12.3836 3.63195C12.5732 3.54638 12.6899 3.35242 12.6769 3.14486C12.6638 2.93731 12.5237 2.75951 12.3249 2.69835L12.1779 3.17624ZM14.5 7C14.5 8.933 12.933 10.5 11 10.5V11.5C13.4853 11.5 15.5 9.48528 15.5 7H14.5ZM14.3459 5.96916C14.4459 6.29443 14.5 6.64044 14.5 7H15.5C15.5 6.53965 15.4307 6.09456 15.3016 5.67508L14.3459 5.96916ZM14.368 5.61637C14.1324 6.13836 13.6079 6.5 13 6.5V7.5C14.0152 7.5 14.888 6.89493 15.2795 6.02787L14.368 5.61637ZM13 6.5C12.1716 6.5 11.5 5.82843 11.5 5H10.5C10.5 6.38071 11.6193 7.5 13 7.5V6.5ZM11.5 5C11.5 4.39212 11.8616 3.86762 12.3836 3.63195L11.9721 2.72054C11.1051 3.11201 10.5 3.98481 10.5 5H11.5ZM11 3.5C11.3596 3.5 11.7056 3.55406 12.0308 3.65414L12.3249 2.69835C11.9054 2.56929 11.4604 2.5 11 2.5V3.5ZM7.5 7C7.5 5.067 9.067 3.5 11 3.5V2.5C8.51472 2.5 6.5 4.51472 6.5 7H7.5ZM11 10.5C9.067 10.5 7.5 8.933 7.5 7H6.5C6.5 9.48528 8.51472 11.5 11 11.5V10.5Z" fill="#B6B4B6"/>
</svg>
