<svg width="51" height="50" viewBox="0 0 51 50" fill="none" xmlns="http://www.w3.org/2000/svg">
<rect width="50" height="50" rx="4" fill="#4267B2"/>
<g clip-path="url(#clip0_4_281)">
<path d="M34.7856 14H15.2134C14.5432 14.0003 13.9998 14.544 14 15.2144V34.7866C14.0003 35.4568 14.544 36.0002 15.2144 36H34.7856C35.4562 36.0002 35.9998 35.4567 36 34.7861C36 34.786 36 34.7858 36 34.7856V15.2134C35.9997 14.5432 35.456 13.9998 34.7856 14Z" fill="#4267B2"/>
<path d="M26.2949 34.6775V26.1697H29.1631L29.5928 22.8396H26.2949V20.7187C26.2949 19.7567 26.562 19.1013 27.9413 19.1013H29.6895V16.1309C29.3853 16.0905 28.3418 16 27.1276 16C24.5925 16 22.8574 17.5469 22.8574 20.3889V22.8396H20V26.1697H22.8574V34.6775H26.2949Z" fill="white"/>
</g>
<line opacity="0.4" x1="50.5" y1="16" x2="50.5" y2="34" stroke="white" stroke-opacity="0.6"/>
<defs>
<clipPath id="clip0_4_281">
<rect width="22" height="22" fill="white" transform="translate(14 14)"/>
</clipPath>
</defs>
</svg>
