<svg width="50" height="50" viewBox="0 0 50 50" fill="none" xmlns="http://www.w3.org/2000/svg">
<rect x="0.5" y="0.5" width="49" height="49" rx="3.5" fill="white" stroke="#DADADB"/>
<rect x="3" y="3" width="44" height="44" rx="3" fill="white"/>
<g clip-path="url(#clip0_4_290)">
<path d="M19.6875 25.5001C19.6875 24.5092 19.9605 23.581 20.4348 22.7862V19.4148H17.0634C15.7253 21.1526 15 23.2705 15 25.5001C15 27.7298 15.7253 29.8477 17.0634 31.5855H20.4348V28.2141C19.9605 27.4193 19.6875 26.491 19.6875 25.5001Z" fill="#FBBD00"/>
<path d="M25 30.8126L22.6562 33.1563L25 35.5001C27.2296 35.5001 29.3475 34.7747 31.0854 33.4367V30.0688H27.7175C26.9158 30.5449 25.9836 30.8126 25 30.8126Z" fill="#0F9D58"/>
<path d="M20.4348 28.2139L17.0634 31.5853C17.3283 31.9293 17.6168 32.2588 17.9289 32.571C19.8177 34.4597 22.3289 35.4999 25 35.4999V30.8124C23.0616 30.8124 21.3626 29.7687 20.4348 28.2139Z" fill="#31AA52"/>
<path d="M35 25.5C35 24.8916 34.9449 24.2821 34.8363 23.6884L34.7483 23.208H25V27.8955H29.7442C29.2835 28.812 28.5752 29.5596 27.7175 30.0689L31.0853 33.4367C31.4294 33.1718 31.7589 32.8833 32.0711 32.5711C33.9598 30.6823 35 28.1711 35 25.5Z" fill="#3C79E6"/>
<path d="M28.7565 21.7435L29.1708 22.1578L32.4854 18.8432L32.0711 18.4289C30.1823 16.5402 27.6711 15.5 25 15.5L22.6562 17.8438L25 20.1875C26.419 20.1875 27.7531 20.7401 28.7565 21.7435Z" fill="#CF2D48"/>
<path d="M25 20.1875V15.5C22.3289 15.5 19.8177 16.5402 17.9289 18.4289C17.6167 18.7411 17.3283 19.0705 17.0633 19.4146L20.4347 22.7861C21.3626 21.2312 23.0615 20.1875 25 20.1875Z" fill="#EB4132"/>
</g>
<defs>
<clipPath id="clip0_4_290">
<rect width="20" height="20" fill="white" transform="translate(15 15.5)"/>
</clipPath>
</defs>
</svg>
