<svg width="49" height="40" viewBox="0 0 49 40" fill="none" xmlns="http://www.w3.org/2000/svg">
<path d="M45.0783 0H3.29837C2.42371 0 1.58472 0.343464 0.966327 0.954714C0.347516 1.56633 0 2.39554 0 3.26V35.86C0 36.7245 0.347506 37.5537 0.966327 38.1653C1.58477 38.7765 2.42373 39.12 3.29837 39.12H45.0783C45.9529 39.12 46.7919 38.7765 47.4103 38.1653C48.0291 37.5537 48.3766 36.7245 48.3766 35.86V3.26C48.3766 2.39552 48.0291 1.56629 47.4103 0.954714C46.7919 0.343464 45.9529 0 45.0783 0ZM31.2035 20.4616L39.5811 12.3876L46.1779 18.7555V34.9251L31.2035 20.4616ZM3.29931 2.17302H45.0792C45.3708 2.17302 45.6502 2.28764 45.8567 2.49139C46.0628 2.69514 46.1784 2.97165 46.1784 3.25981V15.713L40.3515 10.084C39.9241 9.66997 39.2397 9.66997 38.8123 10.084L29.6207 18.9402L24.9592 14.4308C24.5314 14.0168 23.8475 14.0168 23.4197 14.4308L2.20087 34.8822V3.26019C2.20087 2.66022 2.69305 2.1734 3.30007 2.1734L3.29931 2.17302ZM3.29931 36.947H3.22237L24.1887 16.735L45.0786 36.947H3.29931ZM9.89604 15.214V15.2136C11.3542 15.2136 12.7523 14.6413 13.7834 13.6222C14.8142 12.6034 15.3936 11.2216 15.3936 9.78038C15.3936 8.33918 14.8141 6.95731 13.7834 5.93861C12.7523 4.91953 11.3542 4.34717 9.89604 4.34717C8.43825 4.34717 7.03975 4.91949 6.00906 5.93861C4.97799 6.95741 4.39889 8.33918 4.39889 9.78038C4.39889 11.2216 4.97794 12.6034 6.00906 13.6222C7.03984 14.6412 8.43825 15.2136 9.89604 15.2136V15.214ZM9.89604 6.52074V6.52038C10.7711 6.52038 11.6101 6.86384 12.2285 7.47509C12.8469 8.08671 13.1944 8.91592 13.1944 9.78038C13.1944 10.6448 12.8469 11.4741 12.2285 12.0857C11.61 12.6969 10.771 13.0404 9.89604 13.0404C9.02139 13.0404 8.18239 12.6969 7.564 12.0857C6.94519 11.4741 6.59767 10.6448 6.59767 9.78038C6.59767 8.91592 6.94518 8.08667 7.564 7.47509C8.18244 6.86384 9.02141 6.52038 9.89604 6.52038V6.52074Z" fill="white"/>
</svg>
