<svg width="94" height="66" viewBox="0 0 94 66" fill="none" xmlns="http://www.w3.org/2000/svg">
<path d="M47 0C65.3546 0 81.9716 7.38728 94 19.3309L88.125 25.1646C77.6002 14.7139 63.0603 8.25 47 8.25C30.9397 8.25 16.3998 14.7139 5.87498 25.1646L0 19.331C12.0284 7.38731 28.6454 0 47 0Z" fill="#B6B4B6"/>
<path d="M82.25 30.9982L76.375 36.8318C68.8573 29.3671 58.4716 24.75 47 24.75C35.5283 24.75 25.1427 29.3671 17.625 36.8318L11.75 30.9982C20.7712 22.0405 33.234 16.5 47 16.5C60.766 16.5 73.2288 22.0405 82.25 30.9982Z" fill="#B6B4B6"/>
<path d="M47 33C56.1773 33 64.4858 36.6937 70.5 42.6655L64.625 48.4991C60.1144 44.0203 53.883 41.25 47 41.25C40.117 41.25 33.8856 44.0203 29.375 48.4991L23.5 42.6655C29.5142 36.6937 37.8227 33 47 33Z" fill="#B6B4B6"/>
<path d="M58.75 54.3327L47 66L35.25 54.3327C38.2571 51.3468 42.4113 49.5 47 49.5C51.5887 49.5 55.7429 51.3468 58.75 54.3327Z" fill="#B6B4B6"/>
</svg>
