<svg width="24" height="24" viewBox="0 0 24 24" fill="none" xmlns="http://www.w3.org/2000/svg">
<path d="M0.75 3.75C0.335786 3.75 0 4.08579 0 4.5C0 4.91421 0.335786 5.25 0.75 5.25H23.25C23.6642 5.25 24 4.91421 24 4.5C24 4.08579 23.6642 3.75 23.25 3.75H0.75ZM0 12C0 12.4142 0.335786 12.75 0.75 12.75H23.25C23.6642 12.75 24 12.4142 24 12C24 11.5858 23.6642 11.25 23.25 11.25H0.75C0.335786 11.25 0 11.5858 0 12ZM0 19.5C0 19.9142 0.335786 20.25 0.75 20.25H23.25C23.6642 20.25 24 19.9142 24 19.5C24 19.0858 23.6642 18.75 23.25 18.75H0.75C0.335787 18.75 0 19.0858 0 19.5Z" fill="#B6A796"/>
</svg>
