<svg width="24" height="24" viewBox="0 0 24 24" fill="none" xmlns="http://www.w3.org/2000/svg">
<path d="M3.43419 20.5592L3.4336 20.5586C3.31461 20.4432 3.25 20.3112 3.25 20.0871V19.141C3.25 18.6556 3.37541 18.2486 3.61678 17.8893L3.61715 17.8887C3.86784 17.5149 4.20509 17.2251 4.65317 17.0159C5.92112 16.4323 7.16517 15.9932 8.38581 15.6948L8.38609 15.6948C9.6009 15.3975 10.805 15.25 12 15.25C13.195 15.25 14.393 15.3974 15.5956 15.6943L15.5959 15.6944C16.8064 15.9928 18.0574 16.4323 19.3494 17.0171C19.7962 17.2262 20.1326 17.5156 20.3828 17.8887L20.3832 17.8893C20.6246 18.2486 20.75 18.6556 20.75 19.141V20.0871C20.75 20.3112 20.6854 20.4432 20.5664 20.5586L20.5658 20.5592C20.4283 20.6927 20.2886 20.75 20.0925 20.75H3.9075C3.71139 20.75 3.57166 20.6927 3.43419 20.5592Z" fill="#929093" stroke="#929093" stroke-width="2"/>
<circle cx="12" cy="6.75" r="3.5" fill="#929093" stroke="#929093" stroke-width="2"/>
</svg>
